<?xml version="1.0" encoding="iso-8859-1"?>
<!-- Uploaded to: SVG Repo, www.svgrepo.com, Generator: SVG Repo Mixer Tools -->
<svg height="800px" width="800px" version="1.1" id="Layer_1" xmlns="http://www.w3.org/2000/svg" xmlns:xlink="http://www.w3.org/1999/xlink" 
	 viewBox="0 0 512 512" xml:space="preserve">
<path style="fill:#566955;" d="M501.357,10.642c-14.189-14.189-37.276-14.189-51.465,0c-3.191,3.191-3.191,8.363,0,11.555
	c3.191,3.191,8.364,3.191,11.555,0c7.818-7.818,20.538-7.818,28.356,0s7.818,20.538,0,28.356s-20.538,7.818-28.356,0
	c-3.191-3.191-8.364-3.191-11.555,0l-60.204,60.204l11.555,11.555l55.081-55.081c14.046,8.787,32.831,7.08,45.035-5.123
	C515.547,47.918,515.547,24.83,501.357,10.642z"/>
<path style="fill:#3F993A;" d="M419.67,125.336L317.048,227.969l-33.009-33.009c0-0.011,102.622-102.633,102.622-102.633
	l16.504,16.504L419.67,125.336z"/>
<path style="fill:#C3F2AA;" d="M256.598,327.877c8.083,8.094,21.2,8.094,29.294,0c8.094-8.083,8.094-21.2,0-29.294l29.294-29.294
	c8.094,8.094,21.211,8.094,29.294,0c8.094-8.094,8.094-21.211,0-29.294l-72.478-72.478c-8.083-8.094-21.2-8.094-29.294,0
	c-8.083,8.083-8.083,21.2,0,29.294l-29.294,29.294c-8.094-8.083-21.211-8.083-29.294,0c-8.094,8.094-8.094,21.211,0,29.294
	l-29.294,29.294c-8.094-8.083-21.211-8.083-29.294,0c-8.094,8.094-8.094,21.211,0,29.305l20.835,51.637l51.643,20.829
	c8.083,8.094,21.2,8.094,29.294,0c8.083-8.083,8.083-21.2,0-29.294L256.598,327.877z"/>
<path style="fill:#566955;" d="M53.572,446.872L2.393,498.051c-3.191,3.191-3.191,8.363,0,11.555c3.191,3.191,8.364,3.191,11.555,0
	l51.179-51.179L53.572,446.872z"/>
<polygon style="fill:#3F993A;" points="123.668,355.316 73.655,405.329 65.146,427.633 42.036,450.742 61.258,469.963 
	84.367,446.854 106.67,438.344 156.682,388.33 "/>
<g>
	<path style="fill:#C3DEDD;" d="M256.598,327.877l-72.478-72.478c-8.094-8.083-21.211-8.083-29.294,0
		c-8.094,8.094-8.094,21.211,0,29.294l72.478,72.478c8.083,8.094,21.2,8.094,29.294,0
		C264.682,349.087,264.682,335.971,256.598,327.877z"/>
	<path style="fill:#C3DEDD;" d="M315.186,269.289l-72.478-72.478c-8.083-8.094-21.2-8.094-29.294,0
		c-8.094,8.094-8.094,21.211,0,29.294l72.478,72.478c8.094,8.094,21.211,8.094,29.294,0
		C323.28,290.488,323.28,277.383,315.186,269.289z"/>
	<path style="fill:#C3DEDD;" d="M198.011,386.464l-72.478-72.467c-8.094-8.094-21.211-8.094-29.305,0
		c-8.083,8.083-8.083,21.2,0,29.294l72.478,72.478c8.094,8.083,21.211,8.083,29.305,0
		C206.094,407.675,206.094,394.559,198.011,386.464z"/>
</g>
</svg>